inDegrees=no
num_controls=7
num_derivatives=13
num_iterations=81
num_multipliers=7
num_parameters=0
num_slacks=7
num_states=26
objective=0.335363
objective_accelerations=0.034711
objective_balance=0.001193
objective_effort=0.026051
objective_height=0.271758
objective_ligament=0.001651
solver_duration=1028.041819
status=Solve_Succeeded
success=true
DataType=double
version=3
OpenSimVersion=4.5
endheader
time	/jointset/ground_pelvis/pelvis_tilt/value	/jointset/ground_pelvis/pelvis_tx/value	/jointset/ground_pelvis/pelvis_ty/value	/jointset/hip_r/hip_flexion_r/value	/jointset/hip_r/hip_adduction_r/value	/jointset/hip_r/hip_rotation_r/value	/jointset/back/lumbar_extension/value	/jointset/patellofemoral_r/patellar_flexion_r/value	/jointset/knee_r/knee_flexion_r/value	/jointset/knee_r/knee_adduction_r/value	/jointset/knee_r/knee_rotation_r/value	/jointset/ankle_r/ankle_angle_r/value	/jointset/subtalar_r/subtalar_angle_r/value	/jointset/ground_pelvis/pelvis_tilt/speed	/jointset/ground_pelvis/pelvis_tx/speed	/jointset/ground_pelvis/pelvis_ty/speed	/jointset/hip_r/hip_flexion_r/speed	/jointset/hip_r/hip_adduction_r/speed	/jointset/hip_r/hip_rotation_r/speed	/jointset/back/lumbar_extension/speed	/jointset/patellofemoral_r/patellar_flexion_r/speed	/jointset/knee_r/knee_flexion_r/speed	/jointset/knee_r/knee_adduction_r/speed	/jointset/knee_r/knee_rotation_r/speed	/jointset/ankle_r/ankle_angle_r/speed	/jointset/subtalar_r/subtalar_angle_r/speed	/forceset/tau_hip_flexion_r	/forceset/tau_hip_adduction_r	/forceset/tau_hip_rotation_r	/forceset/tau_knee_flexion_r	/forceset/tau_ankle_angle_r	/forceset/tau_subtalar_angle_r	/forceset/tau_lumbar_extension	lambda_cid13_p0	lambda_cid14_p0	lambda_cid14_p1	lambda_cid14_p2	lambda_cid14_p3	lambda_cid14_p4	lambda_cid14_p5	/jointset/ground_pelvis/pelvis_tilt/accel	/jointset/ground_pelvis/pelvis_tx/accel	/jointset/ground_pelvis/pelvis_ty/accel	/jointset/hip_r/hip_flexion_r/accel	/jointset/hip_r/hip_adduction_r/accel	/jointset/hip_r/hip_rotation_r/accel	/jointset/back/lumbar_extension/accel	/jointset/patellofemoral_r/patellar_flexion_r/accel	/jointset/knee_r/knee_flexion_r/accel	/jointset/knee_r/knee_adduction_r/accel	/jointset/knee_r/knee_rotation_r/accel	/jointset/ankle_r/ankle_angle_r/accel	/jointset/subtalar_r/subtalar_angle_r/accel	gamma_cid13_p0	gamma_cid14_p0	gamma_cid14_p1	gamma_cid14_p2	gamma_cid14_p3	gamma_cid14_p4	gamma_cid14_p5
0.5	-0.1550838477700696	0.03695396911368579	0.8137631657990693	0.8738131276394241	-0.2390256091401418	-0.08989113990851187	-0.6426602317762458	0.9283238291835531	0.928323829183529	0.01592192160155138	0.1745228913009734	0.2908234649545635	0.1117779917440307	-0.3887885528019577	-0.1959599836955332	-0.4676265269561418	1.822662492847858	-0.0116455821392318	0.313295528017203	-0.738691400314794	1.865519652252884	1.865519652252886	-0.3052512114575712	-7.359121451322979e-06	0.5273728163859143	0.169883890124632	-0.2041877784058504	0.02130164271876779	0.02585810753966616	-0.2665697223399775	-0.02098277514576368	-0.01329563123785063	0.2428307838764994	-9.497452396974337	-49.89085951138421	-13.35212110181356	1.228255435662027	-2.360220777948641	-641.5724641830994	49.35388668774019	0.2965054037373787	0.5436715013972078	-0.3962174531075581	-1.238047542542643	-0.1114440520635312	-0.2712828559204473	1.737088648748197	-1.306020173352252	-1.306020173352253	0.6702316249455017	-0.04922708456952541	-0.5100011722684291	-0.1956704600949342	-1.930579657033704e-08	1.38501373954896e-07	2.188650906458064e-06	1.25841000911186e-06	-3.237425497352494e-07	2.31989308544099e-09	1.331962425602659e-06
0.51	-0.1589561031095694	0.03502172581428976	0.8090681677173277	0.8919750641378195	-0.2391477044106163	-0.0867752031676834	-0.6499596427920813	0.9469107816725032	0.9469107816724909	0.01290100802699443	0.1745229124972678	0.2960707707190717	0.1134665997540777	-0.38560040617814	-0.1904721980882257	-0.4712684026927519	1.809479215250666	-0.01276607273855155	0.3098955256464667	-0.7211022054094584	1.851616590877176	1.85161659087718	-0.2989043327615443	5.041117295926886e-06	0.5220114151859921	0.167812183076994	-0.210766611461257	0.02278055729680976	0.02596028282542474	-0.2706587058507522	-0.02258872503539624	-0.01288010047624216	0.2488394433531906	-8.521648174507794	-50.69632127970375	-13.46685867475811	1.422648559005058	-2.240463324586065	-646.2691763001885	49.35806745804834	0.3393001921587688	0.5537370474586369	-0.332470945216164	-1.395287611985365	-0.1109164727957736	-0.3738266119411007	1.783124527846011	-1.470582485176438	-1.470582485176186	0.6213101638402009	0.0257966491805906	-0.5608214739963536	-0.2162428706802476	-2.438001650298318e-08	1.348089039100451e-07	2.239556531932359e-06	1.197768161551158e-06	-3.270259119253427e-07	-1.042131091514555e-08	1.415839669951185e-06
0.52	-0.1627946108027382	0.03314484136237903	0.8043398912159644	0.9099978039115088	-0.2392807175688675	-0.08369315998742123	-0.6570805039355795	0.9653510768745961	0.9653510768745965	0.009944442073780892	0.1745229223101695	0.301262140095552	0.1151338262849324	-0.3820390235361342	-0.1848882141984743	-0.4742822108804985	1.794823147906357	-0.01382915969505864	0.3065168159040955	-0.7029814258473329	1.836188194881612	1.836188194881617	-0.292381687189163	-9.635800607085969e-06	0.5161855387803803	0.1656075942860755	-0.2173454445166638	0.02425947187485919	0.02606245811119024	-0.2747476893615265	-0.02419467492502634	-0.01246456971462141	0.2548481028298807	-7.598245216039033	-51.50117582249585	-13.57808893775238	1.612599295574352	-2.136260780365397	-650.9610232382508	49.36217364517038	0.3711526073749473	0.5629111578860108	-0.2706039433348608	-1.532605491965825	-0.0999633235010023	-0.2670243302474573	1.843405580106167	-1.611087097323573	-1.611087097323573	0.7053850002163503	-0.05464251589958583	-0.6028962134063789	-0.2222468087510495	-2.480955516076837e-08	1.269704530223842e-07	2.150020674330928e-06	1.094211444914335e-06	-3.133671809199663e-07	-1.818039889775885e-08	1.407981055992156e-06
0.53	-0.1665956699373298	0.03132422289034015	0.7995846449747626	0.9278667274810781	-0.2394241582062697	-0.08064439148920682	-0.6640176176718018	0.9836296256711515	0.9836296256711681	0.007054347569883037	0.1745224919568522	0.3063929761596755	0.116778201858303	-0.3781109330548513	-0.179224103650282	-0.4766589280669923	1.778721376888262	-0.01485164453321955	0.3032438037123181	-0.6843669514520797	1.819279209145767	1.81927920914577	-0.2856066823267323	-8.003743387108262e-05	0.5099111490929972	0.1632423516038466	-0.2238162595362807	0.02566728072545039	0.02605826771678583	-0.27894768620808	-0.02581114266959264	-0.01205386250138938	0.2607373250870231	-6.730896453569694	-52.31686685897466	-13.68972658352966	1.798518700659895	-1.985769056972699	-655.7305279381214	49.3790383925439	0.4129310246752842	0.5698062485529182	-0.204993663555024	-1.684974339356715	-0.1020195808296407	-0.3564400263857761	1.881623860983173	-1.767152597234664	-1.767152597234953	0.668420781037151	0.01648807524248826	-0.6503558559989677	-0.2469844353581684	-2.543258642973972e-08	1.186485613539119e-07	2.047533429205836e-06	9.888365335396458e-07	-2.983267909108975e-07	-2.351259236830579e-08	1.383051838426175e-06
0.54	-0.1703555894158724	0.02956057457283662	0.7948088739502462	0.9455674310539431	-0.2395775493954218	-0.07762815318545953	-0.6707663555657218	1.001731814953245	1.001731814953277	0.004232975624972626	0.1745213029996602	0.3114589392250059	0.1183982607173721	-0.3738110923267594	-0.1734941832914076	-0.4783871675434202	1.761179148565152	-0.01581927004562603	0.3000107770108263	-0.6653062573868971	1.800916291989135	1.800916291989137	-0.2786371753930758	-0.0001613565758429119	0.5032109390218269	0.1607442514256434	-0.2302870745558971	0.02707508957605117	0.02605407732236659	-0.2831476830546344	-0.02742761041415588	-0.01164315528814105	0.266626547344165	-5.920226775069173	-53.13186187724763	-13.79703045093427	1.978937624091246	-1.8545131312775	-660.4978650063085	49.40197867406948	0.4455026567367213	0.57607312002245	-0.1409084013216618	-1.820696952968646	-0.08899145835012372	-0.2590272321903533	1.932649514092016	-1.901873381480834	-1.901873381480813	0.7442854144614943	-0.05682601764115521	-0.6880602901638037	-0.2488183079459403	-2.62696946302362e-08	1.097917990343292e-07	1.930716989373714e-06	8.814500024549769e-07	-2.817577568977433e-07	-2.615971105954524e-08	1.339235995592929e-06
0.55	-0.1740707538233333	0.02785448766651377	0.7900190744744446	0.9630857113694556	-0.2397403520792008	-0.07464394722356922	-0.677322382327104	1.019643237274969	1.019643237275081	0.001482285028653659	0.1745191763734172	0.3164558080072713	0.1199926499129397	-0.3691658455147006	-0.1677180745933992	-0.4794624101198786	1.74224873629534	-0.01672946666522607	0.2968029602971251	-0.6458417326537643	1.781132362785839	1.781132362785839	-0.2715051629115365	-0.0002517134658465317	0.4960964215663536	0.1581162366506494	-0.2365376795556895	0.02838110434346543	0.02595404098553989	-0.2874972663738477	-0.02898771201880157	-0.01124696678522505	0.2722898317770671	-5.166396579056372	-53.93256874003539	-13.90566040471229	2.156736669218125	-1.670737728239822	-665.2637769734847	49.43986973709241	0.482438466311874	0.5790937076195604	-0.07429008197950504	-1.963425735017698	-0.090043950051588	-0.3558266440436618	1.961958288281375	-2.05201877996279	-2.052018779963158	0.6972698553119931	0.01692089363582456	-0.7331652886815452	-0.2720047976612786	-4.428906568967568e-08	7.34419374894495e-08	1.68112399023152e-06	5.353676248459975e-07	-2.342801839891806e-07	-4.557873813631668e-08	1.179505885489584e-06
0.5600000000000001	-0.1777377852080971	0.0262063046397569	0.7852218309936443	0.9804078450880658	-0.2399118587664296	-0.07169265297943456	-0.6836820429740831	1.037349747086618	1.037349747086811	-0.001197163304782845	0.1745165584619387	0.3213795280518932	0.121560316613681	-0.3641844877877884	-0.161913407378211	-0.4798759685431989	1.721949829184321	-0.01756007073629673	0.2934284334600789	-0.6260330345063337	1.759933789974188	1.759933789974186	-0.2643887228175254	-0.000259613623218212	0.4885811914931822	0.1553997524602493	-0.2427882845554818	0.02968711911088708	0.02585400464871024	-0.2918468496930611	-0.03054781362344487	-0.01085077828229629	0.2779531162099685	-4.469151638824577	-54.73304434769892	-14.00955329049922	2.328416890305104	-1.508361293907073	-670.0376824015121	49.48933955821663	0.5127248397073899	0.5817848234584114	-0.008571570694059465	-2.094395921209771	-0.07307294864425419	-0.2923692568593488	2.001484196951579	-2.184802103151905	-2.184802103151922	0.7411709369558565	-0.04033467111476463	-0.7682028137034365	-0.2665121910271648	-8.292715217984609e-08	4.100356874214405e-09	1.272199119917245e-06	-9.714976859214527e-08	-1.497123644061287e-07	-8.512405527572585e-08	8.806786546621255e-07
0.5700000000000001	-0.1813533714926065	0.02461627059209875	0.7804237609867443	0.9975202582784516	-0.2400915495945679	-0.06877386528436645	-0.6898419949084805	1.054837493477307	1.054837493477416	-0.003803426721392922	0.1745135069527257	0.3262260980660784	0.1230998762696493	-0.3588790803112561	-0.1560924744824833	-0.4796266596497168	1.700312188104142	-0.0183620748239477	0.2902901538642086	-0.6059127595371646	1.737391431247488	1.737391431247487	-0.2568843594873546	-0.0003349993641065428	0.4806753144067887	0.1525036594884565	-0.2488396985446518	0.03086833215910478	0.02569529017717189	-0.2962926062690287	-0.03204717188565259	-0.01047989449198893	0.2834109958880111	-3.82794354608073	-55.51463618201224	-14.11951004017585	2.499213414320707	-1.312896766803969	-674.7618732388742	49.53680797139024	0.5474973560411627	0.5823662980424663	0.05836659880538959	-2.231546605629136	-0.08137281440140659	-0.3305475004500416	2.023988072293217	-2.322540338242598	-2.322540338242292	0.7521510078468513	0.01115900261439081	-0.8104394899291797	-0.3023260385671556	-1.046848733134706e-07	-3.833325196365027e-08	9.796080922845646e-07	-4.872259345606828e-07	-9.40441581196967e-08	-1.047201910059487e-07	6.640091794841872e-07
